<svg width="438" height="403" viewBox="0 0 438 403" fill="none" xmlns="http://www.w3.org/2000/svg">
<g clip-path="url(#clip0)">
<g clip-path="url(#clip1)">
<path fill-rule="evenodd" clip-rule="evenodd" d="M282.099 7.71305L280.366 8.71152L283.86 14.7768L277.795 18.2714L278.793 20.0044L284.859 16.5097L288.353 22.575L290.086 21.5766L286.592 15.5113L292.657 12.0166L291.658 10.2837L285.593 13.7783L282.099 7.71305Z" fill="#FDD219" fill-opacity="0.4"/>
</g>
<g clip-path="url(#clip2)">
<path fill-rule="evenodd" clip-rule="evenodd" d="M178.122 67.6209L176.389 68.6193L179.884 74.6846L173.819 78.1792L174.817 79.9122L180.882 76.4175L184.377 82.4828L186.11 81.4844L182.615 75.4191L188.681 71.9245L187.682 70.1915L181.617 73.6861L178.122 67.6209Z" fill="#FDD219" fill-opacity="0.4"/>
</g>
<g clip-path="url(#clip3)">
<path fill-rule="evenodd" clip-rule="evenodd" d="M74.1461 127.529L72.4132 128.527L75.9078 134.592L69.8425 138.087L70.841 139.82L76.9063 136.325L80.4009 142.391L82.1338 141.392L78.6392 135.327L84.7045 131.832L83.706 130.099L77.6407 133.594L74.1461 127.529Z" fill="#FDD219" fill-opacity="0.4"/>
</g>
<g clip-path="url(#clip4)">
<path fill-rule="evenodd" clip-rule="evenodd" d="M247.44 27.6823L245.707 28.6808L249.201 34.7461L243.136 38.2407L244.135 39.9736L250.2 36.479L253.695 42.5443L255.428 41.5458L251.933 35.4805L257.998 31.9859L257 30.253L250.934 33.7476L247.44 27.6823Z" fill="#FDD219" fill-opacity="0.4"/>
</g>
<g clip-path="url(#clip5)">
<path fill-rule="evenodd" clip-rule="evenodd" d="M143.463 87.5902L141.731 88.5886L145.225 94.6539L139.16 98.1485L140.158 99.8815L146.224 96.3868L149.718 102.452L151.451 101.454L147.957 95.3884L154.022 91.8938L153.023 90.1608L146.958 93.6554L143.463 87.5902Z" fill="#FDD219" fill-opacity="0.4"/>
</g>
<g clip-path="url(#clip6)">
<path fill-rule="evenodd" clip-rule="evenodd" d="M39.4874 147.498L37.7545 148.496L41.2491 154.562L35.1838 158.056L36.1823 159.789L42.2476 156.295L45.7422 162.36L47.4751 161.361L43.9805 155.296L50.0458 151.802L49.0473 150.069L42.982 153.563L39.4874 147.498Z" fill="#FDD219" fill-opacity="0.4"/>
</g>
<g clip-path="url(#clip7)">
<path fill-rule="evenodd" clip-rule="evenodd" d="M212.781 47.6516L211.048 48.6501L214.543 54.7153L208.478 58.21L209.476 59.9429L215.541 56.4483L219.036 62.5136L220.769 61.5151L217.274 55.4498L223.339 51.9552L222.341 50.2222L216.276 53.7169L212.781 47.6516Z" fill="#FDD219" fill-opacity="0.4"/>
</g>
<g clip-path="url(#clip8)">
<path fill-rule="evenodd" clip-rule="evenodd" d="M108.805 107.559L107.072 108.558L110.566 114.623L104.501 118.118L105.5 119.851L111.565 116.356L115.06 122.421L116.793 121.423L113.298 115.358L119.363 111.863L118.365 110.13L112.299 113.625L108.805 107.559Z" fill="#FDD219" fill-opacity="0.4"/>
</g>
<g clip-path="url(#clip9)">
<path fill-rule="evenodd" clip-rule="evenodd" d="M4.82873 167.467L3.09579 168.466L6.59042 174.531L0.525136 178.026L1.5236 179.759L7.58888 176.264L11.0835 182.329L12.8164 181.331L9.32182 175.265L15.3871 171.771L14.3886 170.038L8.32335 173.532L4.82873 167.467Z" fill="#FDD219" fill-opacity="0.4"/>
</g>
<g clip-path="url(#clip10)">
<path fill-rule="evenodd" clip-rule="evenodd" d="M361.976 146.348L360.243 147.346L363.737 153.412L357.672 156.906L358.671 158.639L364.736 155.145L368.23 161.21L369.963 160.212L366.469 154.146L372.534 150.652L371.536 148.919L365.47 152.413L361.976 146.348Z" fill="#FDD219" fill-opacity="0.4"/>
</g>
<g clip-path="url(#clip11)">
<path fill-rule="evenodd" clip-rule="evenodd" d="M257.999 206.256L256.266 207.254L259.761 213.32L253.696 216.814L254.694 218.547L260.76 215.053L264.254 221.118L265.987 220.119L262.492 214.054L268.558 210.559L267.559 208.826L261.494 212.321L257.999 206.256Z" fill="#FDD219" fill-opacity="0.4"/>
</g>
<g clip-path="url(#clip12)">
<path fill-rule="evenodd" clip-rule="evenodd" d="M154.023 266.164L152.29 267.162L155.785 273.227L149.719 276.722L150.718 278.455L156.783 274.96L160.278 281.026L162.011 280.027L158.516 273.962L164.581 270.467L163.583 268.734L157.518 272.229L154.023 266.164Z" fill="#FDD219" fill-opacity="0.4"/>
</g>
<g clip-path="url(#clip13)">
<path fill-rule="evenodd" clip-rule="evenodd" d="M327.317 166.317L325.584 167.316L329.078 173.381L323.013 176.876L324.012 178.609L330.077 175.114L333.572 181.179L335.304 180.181L331.81 174.116L337.875 170.621L336.877 168.888L330.811 172.383L327.317 166.317Z" fill="#FDD219" fill-opacity="0.4"/>
</g>
<g clip-path="url(#clip14)">
<path fill-rule="evenodd" clip-rule="evenodd" d="M223.341 226.225L221.608 227.224L225.102 233.289L219.037 236.783L220.036 238.516L226.101 235.022L229.595 241.087L231.328 240.089L227.834 234.023L233.899 230.529L232.901 228.796L226.835 232.29L223.341 226.225Z" fill="#FDD219" fill-opacity="0.4"/>
</g>
<g clip-path="url(#clip15)">
<path fill-rule="evenodd" clip-rule="evenodd" d="M119.364 286.133L117.631 287.131L121.126 293.197L115.061 296.691L116.059 298.424L122.125 294.93L125.619 300.995L127.352 299.996L123.857 293.931L129.923 290.437L128.924 288.704L122.859 292.198L119.364 286.133Z" fill="#FDD219" fill-opacity="0.4"/>
</g>
<g clip-path="url(#clip16)">
<path fill-rule="evenodd" clip-rule="evenodd" d="M50.047 326.071L48.3141 327.07L51.8087 333.135L45.7434 336.63L46.7419 338.363L52.8071 334.868L56.3018 340.933L58.0347 339.935L54.5401 333.87L60.6054 330.375L59.6069 328.642L53.5416 332.137L50.047 326.071Z" fill="#FDD219" fill-opacity="0.4"/>
</g>
<g clip-path="url(#clip17)">
<path fill-rule="evenodd" clip-rule="evenodd" d="M292.658 186.287L290.925 187.285L294.42 193.35L288.354 196.845L289.353 198.578L295.418 195.083L298.913 201.149L300.646 200.15L297.151 194.085L303.216 190.59L302.218 188.857L296.153 192.352L292.658 186.287Z" fill="#FDD219" fill-opacity="0.4"/>
</g>
<g clip-path="url(#clip18)">
<path fill-rule="evenodd" clip-rule="evenodd" d="M188.682 246.194L186.949 247.193L190.444 253.258L184.378 256.753L185.377 258.486L191.442 254.991L194.937 261.056L196.67 260.058L193.175 253.993L199.24 250.498L198.242 248.765L192.177 252.26L188.682 246.194Z" fill="#FDD219" fill-opacity="0.4"/>
</g>
<g clip-path="url(#clip19)">
<path fill-rule="evenodd" clip-rule="evenodd" d="M84.7057 306.102L82.9727 307.101L86.4674 313.166L80.4021 316.661L81.4006 318.393L87.4658 314.899L90.9605 320.964L92.6934 319.966L89.1988 313.9L95.264 310.406L94.2656 308.673L88.2003 312.167L84.7057 306.102Z" fill="#FDD219" fill-opacity="0.4"/>
</g>
<g clip-path="url(#clip20)">
<path fill-rule="evenodd" clip-rule="evenodd" d="M15.3883 346.041L13.6554 347.039L17.15 353.104L11.0847 356.599L12.0832 358.332L18.1484 354.837L21.6431 360.903L23.376 359.904L19.8814 353.839L25.9467 350.344L24.9482 348.611L18.8829 352.106L15.3883 346.041Z" fill="#FDD219" fill-opacity="0.4"/>
</g>
<g clip-path="url(#clip21)">
<path fill-rule="evenodd" clip-rule="evenodd" d="M302.068 42.3718L300.335 43.3703L303.829 49.4356L297.764 52.9302L298.763 54.6631L304.828 51.1685L308.323 57.2338L310.055 56.2353L306.561 50.17L312.626 46.6754L311.628 44.9425L305.562 48.4371L302.068 42.3718Z" fill="#FDD219" fill-opacity="0.4"/>
</g>
<g clip-path="url(#clip22)">
<path fill-rule="evenodd" clip-rule="evenodd" d="M198.092 102.28L196.359 103.278L199.853 109.343L193.788 112.838L194.787 114.571L200.852 111.076L204.346 117.142L206.079 116.143L202.585 110.078L208.65 106.583L207.652 104.85L201.586 108.345L198.092 102.28Z" fill="#FDD219" fill-opacity="0.4"/>
</g>
<g clip-path="url(#clip23)">
<path fill-rule="evenodd" clip-rule="evenodd" d="M94.1154 162.187L92.3824 163.186L95.877 169.251L89.8118 172.746L90.8102 174.479L96.8755 170.984L100.37 177.049L102.103 176.051L98.6084 169.986L104.674 166.491L103.675 164.758L97.61 168.253L94.1154 162.187Z" fill="#FDD219" fill-opacity="0.4"/>
</g>
<g clip-path="url(#clip24)">
<path fill-rule="evenodd" clip-rule="evenodd" d="M267.409 62.3411L265.676 63.3395L269.171 69.4048L263.105 72.8994L264.104 74.6324L270.169 71.1378L273.664 77.203L275.397 76.2046L271.902 70.1393L277.967 66.6447L276.969 64.9117L270.904 68.4064L267.409 62.3411Z" fill="#FDD219" fill-opacity="0.4"/>
</g>
<g clip-path="url(#clip25)">
<path fill-rule="evenodd" clip-rule="evenodd" d="M163.433 122.249L161.7 123.247L165.194 129.313L159.129 132.807L160.128 134.54L166.193 131.046L169.688 137.111L171.42 136.112L167.926 130.047L173.991 126.552L172.993 124.82L166.927 128.314L163.433 122.249Z" fill="#FDD219" fill-opacity="0.4"/>
</g>
<g clip-path="url(#clip26)">
<path fill-rule="evenodd" clip-rule="evenodd" d="M59.4567 182.157L57.7237 183.155L61.2183 189.22L55.1531 192.715L56.1515 194.448L62.2168 190.953L65.7114 197.019L67.4444 196.02L63.9497 189.955L70.015 186.46L69.0166 184.727L62.9513 188.222L59.4567 182.157Z" fill="#FDD219" fill-opacity="0.4"/>
</g>
<g clip-path="url(#clip27)">
<path fill-rule="evenodd" clip-rule="evenodd" d="M-9.86097 222.095L-11.5939 223.094L-8.09928 229.159L-14.1646 232.654L-13.1661 234.387L-7.10082 230.892L-3.6062 236.957L-1.87326 235.959L-5.36788 229.893L0.697398 226.399L-0.301066 224.666L-6.36634 228.161L-9.86097 222.095Z" fill="#FDD219" fill-opacity="0.4"/>
</g>
<g clip-path="url(#clip28)">
<path fill-rule="evenodd" clip-rule="evenodd" d="M232.75 82.3104L231.017 83.3088L234.512 89.3741L228.447 92.8687L229.445 94.6017L235.511 91.107L239.005 97.1723L240.738 96.1738L237.243 90.1086L243.309 86.6139L242.31 84.881L236.245 88.3756L232.75 82.3104Z" fill="#FDD219" fill-opacity="0.4"/>
</g>
<g clip-path="url(#clip29)">
<path fill-rule="evenodd" clip-rule="evenodd" d="M128.774 142.218L127.041 143.217L130.536 149.282L124.47 152.777L125.469 154.509L131.534 151.015L135.029 157.08L136.762 156.082L133.267 150.016L139.332 146.522L138.334 144.789L132.269 148.283L128.774 142.218Z" fill="#FDD219" fill-opacity="0.4"/>
</g>
<g clip-path="url(#clip30)">
<path fill-rule="evenodd" clip-rule="evenodd" d="M24.798 202.126L23.065 203.124L26.5597 209.19L20.4944 212.684L21.4928 214.417L27.5581 210.923L31.0527 216.988L32.7857 215.989L29.2911 209.924L35.3563 206.43L34.3579 204.697L28.2926 208.191L24.798 202.126Z" fill="#FDD219" fill-opacity="0.4"/>
</g>
<g clip-path="url(#clip31)">
<path fill-rule="evenodd" clip-rule="evenodd" d="M381.945 181.007L380.212 182.005L383.707 188.07L377.641 191.565L378.64 193.298L384.705 189.803L388.2 195.869L389.933 194.87L386.438 188.805L392.503 185.31L391.505 183.577L385.44 187.072L381.945 181.007Z" fill="#FDD219" fill-opacity="0.4"/>
</g>
<g clip-path="url(#clip32)">
<path fill-rule="evenodd" clip-rule="evenodd" d="M277.969 240.915L276.236 241.913L279.73 247.978L273.665 251.473L274.663 253.206L280.729 249.711L284.223 255.777L285.956 254.778L282.462 248.713L288.527 245.218L287.529 243.485L281.463 246.98L277.969 240.915Z" fill="#FDD219" fill-opacity="0.4"/>
</g>
<g clip-path="url(#clip33)">
<path fill-rule="evenodd" clip-rule="evenodd" d="M173.993 300.822L172.26 301.821L175.754 307.886L169.689 311.381L170.687 313.114L176.753 309.619L180.247 315.684L181.98 314.686L178.486 308.621L184.551 305.126L183.552 303.393L177.487 306.888L173.993 300.822Z" fill="#FDD219" fill-opacity="0.4"/>
</g>
<g clip-path="url(#clip34)">
<path fill-rule="evenodd" clip-rule="evenodd" d="M347.286 200.976L345.553 201.975L349.048 208.04L342.983 211.534L343.981 213.267L350.046 209.773L353.541 215.838L355.274 214.84L351.779 208.774L357.845 205.28L356.846 203.547L350.781 207.041L347.286 200.976Z" fill="#FDD219" fill-opacity="0.4"/>
</g>
<g clip-path="url(#clip35)">
<path fill-rule="evenodd" clip-rule="evenodd" d="M243.31 260.884L241.577 261.882L245.072 267.948L239.006 271.442L240.005 273.175L246.07 269.681L249.565 275.746L251.298 274.747L247.803 268.682L253.868 265.187L252.87 263.455L246.805 266.949L243.31 260.884Z" fill="#FDD219" fill-opacity="0.4"/>
</g>
<g clip-path="url(#clip36)">
<path fill-rule="evenodd" clip-rule="evenodd" d="M139.334 320.792L137.601 321.79L141.095 327.855L135.03 331.35L136.028 333.083L142.094 329.588L145.588 335.654L147.321 334.655L143.827 328.59L149.892 325.095L148.894 323.362L142.828 326.857L139.334 320.792Z" fill="#FDD219" fill-opacity="0.4"/>
</g>
<g clip-path="url(#clip37)">
<path fill-rule="evenodd" clip-rule="evenodd" d="M70.0162 360.73L68.2833 361.729L71.7779 367.794L65.7126 371.289L66.7111 373.021L72.7764 369.527L76.271 375.592L78.0039 374.594L74.5093 368.528L80.5746 365.034L79.5761 363.301L73.5109 366.795L70.0162 360.73Z" fill="#FDD219" fill-opacity="0.4"/>
</g>
<g clip-path="url(#clip38)">
<path fill-rule="evenodd" clip-rule="evenodd" d="M312.627 220.945L310.894 221.944L314.389 228.009L308.324 231.504L309.322 233.237L315.387 229.742L318.882 235.807L320.615 234.809L317.12 228.744L323.186 225.249L322.187 223.516L316.122 227.011L312.627 220.945Z" fill="#FDD219" fill-opacity="0.4"/>
</g>
<g clip-path="url(#clip39)">
<path fill-rule="evenodd" clip-rule="evenodd" d="M208.651 280.853L206.918 281.852L210.413 287.917L204.348 291.411L205.346 293.144L211.411 289.65L214.906 295.715L216.639 294.717L213.144 288.651L219.21 285.157L218.211 283.424L212.146 286.918L208.651 280.853Z" fill="#FDD219" fill-opacity="0.4"/>
</g>
<g clip-path="url(#clip40)">
<path fill-rule="evenodd" clip-rule="evenodd" d="M104.675 340.761L102.942 341.759L106.437 347.825L100.371 351.319L101.37 353.052L107.435 349.558L110.93 355.623L112.663 354.624L109.168 348.559L115.233 345.065L114.235 343.332L108.17 346.826L104.675 340.761Z" fill="#FDD219" fill-opacity="0.4"/>
</g>
<g clip-path="url(#clip41)">
<path fill-rule="evenodd" clip-rule="evenodd" d="M35.3575 380.699L33.6246 381.698L37.1192 387.763L31.0539 391.258L32.0524 392.991L38.1177 389.496L41.6123 395.561L43.3452 394.563L39.8506 388.498L45.9159 385.003L44.9174 383.27L38.8522 386.765L35.3575 380.699Z" fill="#FDD219" fill-opacity="0.4"/>
</g>
<g clip-path="url(#clip42)">
<path fill-rule="evenodd" clip-rule="evenodd" d="M441.853 284.983L440.12 285.981L443.614 292.047L437.549 295.541L438.548 297.274L444.613 293.78L448.107 299.845L449.84 298.846L446.346 292.781L452.411 289.287L451.413 287.554L445.347 291.048L441.853 284.983Z" fill="#FDD219" fill-opacity="0.4"/>
</g>
<g clip-path="url(#clip43)">
<path fill-rule="evenodd" clip-rule="evenodd" d="M337.877 344.891L336.144 345.889L339.638 351.955L333.573 355.449L334.571 357.182L340.637 353.687L344.131 359.753L345.864 358.754L342.37 352.689L348.435 349.194L347.436 347.461L341.371 350.956L337.877 344.891Z" fill="#FDD219" fill-opacity="0.4"/>
</g>
<g clip-path="url(#clip44)">
<path fill-rule="evenodd" clip-rule="evenodd" d="M233.9 404.799L232.167 405.797L235.662 411.862L229.597 415.357L230.595 417.09L236.66 413.595L240.155 419.661L241.888 418.662L238.393 412.597L244.459 409.102L243.46 407.369L237.395 410.864L233.9 404.799Z" fill="#FDD219" fill-opacity="0.4"/>
</g>
<g clip-path="url(#clip45)">
<path fill-rule="evenodd" clip-rule="evenodd" d="M407.194 304.952L405.461 305.951L408.956 312.016L402.89 315.511L403.889 317.244L409.954 313.749L413.449 319.814L415.182 318.816L411.687 312.75L417.752 309.256L416.754 307.523L410.689 311.018L407.194 304.952Z" fill="#FDD219" fill-opacity="0.4"/>
</g>
<g clip-path="url(#clip46)">
<path fill-rule="evenodd" clip-rule="evenodd" d="M303.218 364.86L301.485 365.859L304.979 371.924L298.914 375.418L299.913 377.151L305.978 373.657L309.472 379.722L311.205 378.724L307.711 372.658L313.776 369.164L312.778 367.431L306.712 370.925L303.218 364.86Z" fill="#FDD219" fill-opacity="0.4"/>
</g>
<g clip-path="url(#clip47)">
<path fill-rule="evenodd" clip-rule="evenodd" d="M372.535 324.922L370.802 325.92L374.297 331.985L368.232 335.48L369.23 337.213L375.295 333.718L378.79 339.783L380.523 338.785L377.028 332.72L383.094 329.225L382.095 327.492L376.03 330.987L372.535 324.922Z" fill="#FDD219" fill-opacity="0.4"/>
</g>
<g clip-path="url(#clip48)">
<path fill-rule="evenodd" clip-rule="evenodd" d="M268.559 384.829L266.826 385.828L270.321 391.893L264.255 395.388L265.254 397.121L271.319 393.626L274.814 399.691L276.547 398.693L273.052 392.628L279.117 389.133L278.119 387.4L272.054 390.895L268.559 384.829Z" fill="#FDD219" fill-opacity="0.4"/>
</g>
<g clip-path="url(#clip49)">
<path fill-rule="evenodd" clip-rule="evenodd" d="M322.037 77.0305L320.304 78.029L323.799 84.0943L317.733 87.5889L318.732 89.3218L324.797 85.8272L328.292 91.8925L330.025 90.894L326.53 84.8287L332.595 81.3341L331.597 79.6012L325.532 83.0958L322.037 77.0305Z" fill="#FDD219" fill-opacity="0.4"/>
</g>
<g clip-path="url(#clip50)">
<path fill-rule="evenodd" clip-rule="evenodd" d="M218.061 136.938L216.328 137.937L219.823 144.002L213.757 147.497L214.756 149.23L220.821 145.735L224.316 151.8L226.049 150.802L222.554 144.737L228.619 141.242L227.621 139.509L221.556 143.004L218.061 136.938Z" fill="#FDD219" fill-opacity="0.4"/>
</g>
<g clip-path="url(#clip51)">
<path fill-rule="evenodd" clip-rule="evenodd" d="M114.085 196.846L112.352 197.845L115.846 203.91L109.781 207.405L110.779 209.137L116.845 205.643L120.339 211.708L122.072 210.71L118.578 204.644L124.643 201.15L123.644 199.417L117.579 202.911L114.085 196.846Z" fill="#FDD219" fill-opacity="0.4"/>
</g>
<g clip-path="url(#clip52)">
<path fill-rule="evenodd" clip-rule="evenodd" d="M287.378 96.9998L285.645 97.9983L289.14 104.064L283.075 107.558L284.073 109.291L290.138 105.797L293.633 111.862L295.366 110.863L291.871 104.798L297.937 101.303L296.938 99.5705L290.873 103.065L287.378 96.9998Z" fill="#FDD219" fill-opacity="0.4"/>
</g>
<g clip-path="url(#clip53)">
<path fill-rule="evenodd" clip-rule="evenodd" d="M183.402 156.908L181.669 157.906L185.164 163.971L179.099 167.466L180.097 169.199L186.162 165.704L189.657 171.77L191.39 170.771L187.895 164.706L193.961 161.211L192.962 159.478L186.897 162.973L183.402 156.908Z" fill="#FDD219" fill-opacity="0.4"/>
</g>
<g clip-path="url(#clip54)">
<path fill-rule="evenodd" clip-rule="evenodd" d="M79.4259 216.815L77.693 217.814L81.1876 223.879L75.1223 227.374L76.1208 229.107L82.186 225.612L85.6807 231.677L87.4136 230.679L83.919 224.614L89.9843 221.119L88.9858 219.386L82.9205 222.881L79.4259 216.815Z" fill="#FDD219" fill-opacity="0.4"/>
</g>
<g clip-path="url(#clip55)">
<path fill-rule="evenodd" clip-rule="evenodd" d="M10.1085 256.754L8.37558 257.752L11.8702 263.818L5.80492 267.312L6.80338 269.045L12.8687 265.551L16.3633 271.616L18.0962 270.617L14.6016 264.552L20.6669 261.058L19.6684 259.325L13.6031 262.819L10.1085 256.754Z" fill="#FDD219" fill-opacity="0.4"/>
</g>
<g clip-path="url(#clip56)">
<path fill-rule="evenodd" clip-rule="evenodd" d="M252.72 116.969L250.987 117.968L254.481 124.033L248.416 127.527L249.414 129.26L255.48 125.766L258.974 131.831L260.707 130.833L257.213 124.767L263.278 121.273L262.28 119.54L256.214 123.034L252.72 116.969Z" fill="#FDD219" fill-opacity="0.4"/>
</g>
<g clip-path="url(#clip57)">
<path fill-rule="evenodd" clip-rule="evenodd" d="M148.743 176.877L147.01 177.875L150.505 183.941L144.44 187.435L145.438 189.168L151.503 185.674L154.998 191.739L156.731 190.74L153.236 184.675L159.302 181.18L158.303 179.448L152.238 182.942L148.743 176.877Z" fill="#FDD219" fill-opacity="0.4"/>
</g>
<g clip-path="url(#clip58)">
<path fill-rule="evenodd" clip-rule="evenodd" d="M44.7672 236.785L43.0343 237.783L46.5289 243.848L40.4636 247.343L41.4621 249.076L47.5274 245.581L51.022 251.647L52.7549 250.648L49.2603 244.583L55.3256 241.088L54.3271 239.355L48.2618 242.85L44.7672 236.785Z" fill="#FDD219" fill-opacity="0.4"/>
</g>
<g clip-path="url(#clip59)">
<path fill-rule="evenodd" clip-rule="evenodd" d="M401.914 215.666L400.181 216.664L403.676 222.729L397.611 226.224L398.609 227.957L404.674 224.462L408.169 230.527L409.902 229.529L406.407 223.464L412.473 219.969L411.474 218.236L405.409 221.731L401.914 215.666Z" fill="#FDD219" fill-opacity="0.4"/>
</g>
<g clip-path="url(#clip60)">
<path fill-rule="evenodd" clip-rule="evenodd" d="M297.938 275.573L296.205 276.572L299.7 282.637L293.634 286.132L294.633 287.865L300.698 284.37L304.193 290.435L305.926 289.437L302.431 283.372L308.496 279.877L307.498 278.144L301.432 281.639L297.938 275.573Z" fill="#FDD219" fill-opacity="0.4"/>
</g>
<g clip-path="url(#clip61)">
<path fill-rule="evenodd" clip-rule="evenodd" d="M193.962 335.481L192.229 336.48L195.723 342.545L189.658 346.039L190.657 347.772L196.722 344.278L200.217 350.343L201.949 349.345L198.455 343.279L204.52 339.785L203.522 338.052L197.456 341.546L193.962 335.481Z" fill="#FDD219" fill-opacity="0.4"/>
</g>
<g clip-path="url(#clip62)">
<path fill-rule="evenodd" clip-rule="evenodd" d="M367.255 235.635L365.523 236.633L369.017 242.699L362.952 246.193L363.95 247.926L370.016 244.431L373.51 250.497L375.243 249.498L371.749 243.433L377.814 239.938L376.815 238.205L370.75 241.7L367.255 235.635Z" fill="#FDD219" fill-opacity="0.4"/>
</g>
<g clip-path="url(#clip63)">
<path fill-rule="evenodd" clip-rule="evenodd" d="M263.279 295.543L261.546 296.541L265.041 302.606L258.976 306.101L259.974 307.834L266.039 304.339L269.534 310.405L271.267 309.406L267.772 303.341L273.838 299.846L272.839 298.113L266.774 301.608L263.279 295.543Z" fill="#FDD219" fill-opacity="0.4"/>
</g>
<g clip-path="url(#clip64)">
<path fill-rule="evenodd" clip-rule="evenodd" d="M159.303 355.45L157.57 356.449L161.065 362.514L154.999 366.009L155.998 367.742L162.063 364.247L165.558 370.312L167.291 369.314L163.796 363.249L169.861 359.754L168.863 358.021L162.797 361.516L159.303 355.45Z" fill="#FDD219" fill-opacity="0.4"/>
</g>
<g clip-path="url(#clip65)">
<path fill-rule="evenodd" clip-rule="evenodd" d="M89.9855 395.389L88.2525 396.387L91.7472 402.453L85.6819 405.947L86.6803 407.68L92.7456 404.186L96.2402 410.251L97.9732 409.252L94.4786 403.187L100.544 399.693L99.5454 397.96L93.4801 401.454L89.9855 395.389Z" fill="#FDD219" fill-opacity="0.4"/>
</g>
<g clip-path="url(#clip66)">
<path fill-rule="evenodd" clip-rule="evenodd" d="M332.597 255.604L330.864 256.603L334.358 262.668L328.293 266.162L329.291 267.895L335.357 264.401L338.851 270.466L340.584 269.468L337.09 263.402L343.155 259.908L342.156 258.175L336.091 261.669L332.597 255.604Z" fill="#FDD219" fill-opacity="0.4"/>
</g>
<g clip-path="url(#clip67)">
<path fill-rule="evenodd" clip-rule="evenodd" d="M228.62 315.512L226.888 316.51L230.382 322.576L224.317 326.07L225.315 327.803L231.381 324.309L234.875 330.374L236.608 329.375L233.114 323.31L239.179 319.815L238.18 318.083L232.115 321.577L228.62 315.512Z" fill="#FDD219" fill-opacity="0.4"/>
</g>
<g clip-path="url(#clip68)">
<path fill-rule="evenodd" clip-rule="evenodd" d="M124.644 375.42L122.911 376.418L126.406 382.483L120.341 385.978L121.339 387.711L127.404 384.216L130.899 390.282L132.632 389.283L129.137 383.218L135.203 379.723L134.204 377.99L128.139 381.485L124.644 375.42Z" fill="#FDD219" fill-opacity="0.4"/>
</g>
<g clip-path="url(#clip69)">
<path fill-rule="evenodd" clip-rule="evenodd" d="M357.846 379.55L356.113 380.548L359.608 386.613L353.542 390.108L354.541 391.841L360.606 388.346L364.101 394.411L365.834 393.413L362.339 387.348L368.404 383.853L367.406 382.12L361.34 385.615L357.846 379.55Z" fill="#FDD219" fill-opacity="0.4"/>
</g>
<g clip-path="url(#clip70)">
<path fill-rule="evenodd" clip-rule="evenodd" d="M427.163 339.611L425.43 340.609L428.925 346.675L422.86 350.169L423.858 351.902L429.923 348.408L433.418 354.473L435.151 353.474L431.656 347.409L437.722 343.915L436.723 342.182L430.658 345.676L427.163 339.611Z" fill="#FDD219" fill-opacity="0.4"/>
</g>
<g clip-path="url(#clip71)">
<path fill-rule="evenodd" clip-rule="evenodd" d="M323.187 399.519L321.454 400.517L324.949 406.583L318.883 410.077L319.882 411.81L325.947 408.315L329.442 414.381L331.175 413.382L327.68 407.317L333.745 403.822L332.747 402.089L326.682 405.584L323.187 399.519Z" fill="#FDD219" fill-opacity="0.4"/>
</g>
<g clip-path="url(#clip72)">
<path fill-rule="evenodd" clip-rule="evenodd" d="M392.505 359.58L390.772 360.579L394.266 366.644L388.201 370.139L389.199 371.872L395.265 368.377L398.759 374.442L400.492 373.444L396.998 367.378L403.063 363.884L402.064 362.151L395.999 365.646L392.505 359.58Z" fill="#FDD219" fill-opacity="0.4"/>
</g>
<g clip-path="url(#clip73)">
<path fill-rule="evenodd" clip-rule="evenodd" d="M342.006 111.689L340.273 112.688L343.768 118.753L337.703 122.248L338.701 123.981L344.766 120.486L348.261 126.551L349.994 125.553L346.499 119.487L352.565 115.993L351.566 114.26L345.501 117.755L342.006 111.689Z" fill="#FDD219" fill-opacity="0.4"/>
</g>
<g clip-path="url(#clip74)">
<path fill-rule="evenodd" clip-rule="evenodd" d="M238.03 171.597L236.297 172.596L239.792 178.661L233.727 182.155L234.725 183.888L240.79 180.394L244.285 186.459L246.018 185.461L242.523 179.395L248.589 175.901L247.59 174.168L241.525 177.662L238.03 171.597Z" fill="#FDD219" fill-opacity="0.4"/>
</g>
<g clip-path="url(#clip75)">
<path fill-rule="evenodd" clip-rule="evenodd" d="M134.054 231.505L132.321 232.503L135.816 238.569L129.75 242.063L130.749 243.796L136.814 240.302L140.309 246.367L142.042 245.368L138.547 239.303L144.612 235.809L143.614 234.076L137.548 237.57L134.054 231.505Z" fill="#FDD219" fill-opacity="0.4"/>
</g>
<g clip-path="url(#clip76)">
<path fill-rule="evenodd" clip-rule="evenodd" d="M307.348 131.659L305.615 132.657L309.109 138.722L303.044 142.217L304.042 143.95L310.108 140.455L313.602 146.521L315.335 145.522L311.841 139.457L317.906 135.962L316.907 134.229L310.842 137.724L307.348 131.659Z" fill="#FDD219" fill-opacity="0.4"/>
</g>
<g clip-path="url(#clip77)">
<path fill-rule="evenodd" clip-rule="evenodd" d="M203.371 191.566L201.639 192.565L205.133 198.63L199.068 202.125L200.066 203.858L206.132 200.363L209.626 206.428L211.359 205.43L207.865 199.365L213.93 195.87L212.931 194.137L206.866 197.632L203.371 191.566Z" fill="#FDD219" fill-opacity="0.4"/>
</g>
<g clip-path="url(#clip78)">
<path fill-rule="evenodd" clip-rule="evenodd" d="M99.3951 251.474L97.6622 252.473L101.157 258.538L95.0915 262.033L96.09 263.765L102.155 260.271L105.65 266.336L107.383 265.338L103.888 259.272L109.954 255.778L108.955 254.045L102.89 257.539L99.3951 251.474Z" fill="#FDD219" fill-opacity="0.4"/>
</g>
<g clip-path="url(#clip79)">
<path fill-rule="evenodd" clip-rule="evenodd" d="M30.0778 291.413L28.3448 292.411L31.8394 298.476L25.7742 301.971L26.7726 303.704L32.8379 300.209L36.3325 306.275L38.0655 305.276L34.5708 299.211L40.6361 295.716L39.6377 293.983L33.5724 297.478L30.0778 291.413Z" fill="#FDD219" fill-opacity="0.4"/>
</g>
<g clip-path="url(#clip80)">
<path fill-rule="evenodd" clip-rule="evenodd" d="M272.689 151.628L270.956 152.626L274.451 158.692L268.385 162.186L269.384 163.919L275.449 160.424L278.944 166.49L280.677 165.491L277.182 159.426L283.247 155.931L282.249 154.198L276.183 157.693L272.689 151.628Z" fill="#FDD219" fill-opacity="0.4"/>
</g>
<g clip-path="url(#clip81)">
<path fill-rule="evenodd" clip-rule="evenodd" d="M168.713 211.536L166.98 212.534L170.474 218.599L164.409 222.094L165.407 223.827L171.473 220.332L174.967 226.398L176.7 225.399L173.206 219.334L179.271 215.839L178.272 214.106L172.207 217.601L168.713 211.536Z" fill="#FDD219" fill-opacity="0.4"/>
</g>
<g clip-path="url(#clip82)">
<path fill-rule="evenodd" clip-rule="evenodd" d="M64.7364 271.443L63.0035 272.442L66.4981 278.507L60.4329 282.002L61.4313 283.735L67.4966 280.24L70.9912 286.305L72.7242 285.307L69.2295 279.242L75.2948 275.747L74.2963 274.014L68.2311 277.509L64.7364 271.443Z" fill="#FDD219" fill-opacity="0.4"/>
</g>
<g clip-path="url(#clip83)">
<path fill-rule="evenodd" clip-rule="evenodd" d="M-4.58093 311.382L-6.31387 312.38L-2.81925 318.446L-8.88453 321.94L-7.88606 323.673L-1.82079 320.179L1.67384 326.244L3.40677 325.245L-0.0878482 319.18L5.97743 315.686L4.97897 313.953L-1.08631 317.447L-4.58093 311.382Z" fill="#FDD219" fill-opacity="0.4"/>
</g>
<g clip-path="url(#clip84)">
<path fill-rule="evenodd" clip-rule="evenodd" d="M421.883 250.324L420.15 251.323L423.645 257.388L417.58 260.883L418.578 262.616L424.644 259.121L428.138 265.186L429.871 264.188L426.377 258.122L432.442 254.628L431.443 252.895L425.378 256.39L421.883 250.324Z" fill="#FDD219" fill-opacity="0.4"/>
</g>
<g clip-path="url(#clip85)">
<path fill-rule="evenodd" clip-rule="evenodd" d="M317.907 310.232L316.174 311.231L319.669 317.296L313.604 320.79L314.602 322.523L320.667 319.029L324.162 325.094L325.895 324.096L322.4 318.03L328.465 314.536L327.467 312.803L321.402 316.297L317.907 310.232Z" fill="#FDD219" fill-opacity="0.4"/>
</g>
<g clip-path="url(#clip86)">
<path fill-rule="evenodd" clip-rule="evenodd" d="M213.931 370.14L212.198 371.138L215.693 377.204L209.627 380.698L210.626 382.431L216.691 378.937L220.186 385.002L221.919 384.003L218.424 377.938L224.489 374.443L223.491 372.711L217.426 376.205L213.931 370.14Z" fill="#FDD219" fill-opacity="0.4"/>
</g>
<g clip-path="url(#clip87)">
<path fill-rule="evenodd" clip-rule="evenodd" d="M387.225 270.294L385.492 271.292L388.986 277.357L382.921 280.852L383.92 282.585L389.985 279.09L393.479 285.155L395.212 284.157L391.718 278.092L397.783 274.597L396.785 272.864L390.719 276.359L387.225 270.294Z" fill="#FDD219" fill-opacity="0.4"/>
</g>
<g clip-path="url(#clip88)">
<path fill-rule="evenodd" clip-rule="evenodd" d="M283.248 330.201L281.515 331.2L285.01 337.265L278.945 340.76L279.943 342.493L286.009 338.998L289.503 345.063L291.236 344.065L287.741 338L293.807 334.505L292.808 332.772L286.743 336.267L283.248 330.201Z" fill="#FDD219" fill-opacity="0.4"/>
</g>
<g clip-path="url(#clip89)">
<path fill-rule="evenodd" clip-rule="evenodd" d="M179.272 390.109L177.539 391.108L181.034 397.173L174.969 400.667L175.967 402.4L182.032 398.906L185.527 404.971L187.26 403.973L183.765 397.907L189.831 394.413L188.832 392.68L182.767 396.174L179.272 390.109Z" fill="#FDD219" fill-opacity="0.4"/>
</g>
<g clip-path="url(#clip90)">
<path fill-rule="evenodd" clip-rule="evenodd" d="M352.566 290.263L350.833 291.261L354.328 297.327L348.262 300.821L349.261 302.554L355.326 299.059L358.821 305.125L360.554 304.126L357.059 298.061L363.124 294.566L362.126 292.833L356.061 296.328L352.566 290.263Z" fill="#FDD219" fill-opacity="0.4"/>
</g>
<g clip-path="url(#clip91)">
<path fill-rule="evenodd" clip-rule="evenodd" d="M248.59 350.171L246.857 351.169L250.351 357.234L244.286 360.729L245.285 362.462L251.35 358.967L254.844 365.033L256.577 364.034L253.083 357.969L259.148 354.474L258.15 352.741L252.084 356.236L248.59 350.171Z" fill="#FDD219" fill-opacity="0.4"/>
</g>
<g clip-path="url(#clip92)">
<path fill-rule="evenodd" clip-rule="evenodd" d="M412.474 394.239L410.741 395.237L414.235 401.303L408.17 404.797L409.169 406.53L415.234 403.036L418.729 409.101L420.461 408.102L416.967 402.037L423.032 398.543L422.034 396.81L415.968 400.304L412.474 394.239Z" fill="#FDD219" fill-opacity="0.4"/>
</g>
</g>
<defs>
<clipPath id="clip0">
<rect x="292.674" y="-18" width="291.099" height="337.778" transform="rotate(60.0508 292.674 -18)" fill="white"/>
</clipPath>
<clipPath id="clip1">
<rect x="288.898" y="1.48703" width="20" height="20" transform="rotate(60.0508 288.898 1.48703)" fill="white"/>
</clipPath>
<clipPath id="clip2">
<rect x="184.922" y="61.3948" width="20" height="20" transform="rotate(60.0508 184.922 61.3948)" fill="white"/>
</clipPath>
<clipPath id="clip3">
<rect x="80.9458" y="121.303" width="20" height="20" transform="rotate(60.0508 80.9458 121.303)" fill="white"/>
</clipPath>
<clipPath id="clip4">
<rect x="254.24" y="21.4563" width="20" height="20" transform="rotate(60.0508 254.24 21.4563)" fill="white"/>
</clipPath>
<clipPath id="clip5">
<rect x="150.263" y="81.3641" width="20" height="20" transform="rotate(60.0508 150.263 81.3641)" fill="white"/>
</clipPath>
<clipPath id="clip6">
<rect x="46.2871" y="141.272" width="20" height="20" transform="rotate(60.0508 46.2871 141.272)" fill="white"/>
</clipPath>
<clipPath id="clip7">
<rect x="219.581" y="41.4256" width="20" height="20" transform="rotate(60.0508 219.581 41.4256)" fill="white"/>
</clipPath>
<clipPath id="clip8">
<rect x="115.604" y="101.333" width="20" height="20" transform="rotate(60.0508 115.604 101.333)" fill="white"/>
</clipPath>
<clipPath id="clip9">
<rect x="11.6284" y="161.241" width="20" height="20" transform="rotate(60.0508 11.6284 161.241)" fill="white"/>
</clipPath>
<clipPath id="clip10">
<rect x="368.775" y="140.122" width="20" height="20" transform="rotate(60.0508 368.775 140.122)" fill="white"/>
</clipPath>
<clipPath id="clip11">
<rect x="264.799" y="200.03" width="20" height="20" transform="rotate(60.0508 264.799 200.03)" fill="white"/>
</clipPath>
<clipPath id="clip12">
<rect x="160.823" y="259.938" width="20" height="20" transform="rotate(60.0508 160.823 259.938)" fill="white"/>
</clipPath>
<clipPath id="clip13">
<rect x="334.116" y="160.091" width="20" height="20" transform="rotate(60.0508 334.116 160.091)" fill="white"/>
</clipPath>
<clipPath id="clip14">
<rect x="230.14" y="219.999" width="20" height="20" transform="rotate(60.0508 230.14 219.999)" fill="white"/>
</clipPath>
<clipPath id="clip15">
<rect x="126.164" y="279.907" width="20" height="20" transform="rotate(60.0508 126.164 279.907)" fill="white"/>
</clipPath>
<clipPath id="clip16">
<rect x="56.8467" y="319.845" width="20" height="20" transform="rotate(60.0508 56.8467 319.845)" fill="white"/>
</clipPath>
<clipPath id="clip17">
<rect x="299.458" y="180.061" width="20" height="20" transform="rotate(60.0508 299.458 180.061)" fill="white"/>
</clipPath>
<clipPath id="clip18">
<rect x="195.482" y="239.968" width="20" height="20" transform="rotate(60.0508 195.482 239.968)" fill="white"/>
</clipPath>
<clipPath id="clip19">
<rect x="91.5054" y="299.876" width="20" height="20" transform="rotate(60.0508 91.5054 299.876)" fill="white"/>
</clipPath>
<clipPath id="clip20">
<rect x="22.188" y="339.815" width="20" height="20" transform="rotate(60.0508 22.188 339.815)" fill="white"/>
</clipPath>
<clipPath id="clip21">
<rect x="308.867" y="36.1458" width="20" height="20" transform="rotate(60.0508 308.867 36.1458)" fill="white"/>
</clipPath>
<clipPath id="clip22">
<rect x="204.891" y="96.0536" width="20" height="20" transform="rotate(60.0508 204.891 96.0536)" fill="white"/>
</clipPath>
<clipPath id="clip23">
<rect x="100.915" y="155.961" width="20" height="20" transform="rotate(60.0508 100.915 155.961)" fill="white"/>
</clipPath>
<clipPath id="clip24">
<rect x="274.209" y="56.1151" width="20" height="20" transform="rotate(60.0508 274.209 56.1151)" fill="white"/>
</clipPath>
<clipPath id="clip25">
<rect x="170.232" y="116.023" width="20" height="20" transform="rotate(60.0508 170.232 116.023)" fill="white"/>
</clipPath>
<clipPath id="clip26">
<rect x="66.2563" y="175.931" width="20" height="20" transform="rotate(60.0508 66.2563 175.931)" fill="white"/>
</clipPath>
<clipPath id="clip27">
<rect x="-3.06128" y="215.869" width="20" height="20" transform="rotate(60.0508 -3.06128 215.869)" fill="white"/>
</clipPath>
<clipPath id="clip28">
<rect x="239.55" y="76.0843" width="20" height="20" transform="rotate(60.0508 239.55 76.0843)" fill="white"/>
</clipPath>
<clipPath id="clip29">
<rect x="135.574" y="135.992" width="20" height="20" transform="rotate(60.0508 135.574 135.992)" fill="white"/>
</clipPath>
<clipPath id="clip30">
<rect x="31.5977" y="195.9" width="20" height="20" transform="rotate(60.0508 31.5977 195.9)" fill="white"/>
</clipPath>
<clipPath id="clip31">
<rect x="388.745" y="174.781" width="20" height="20" transform="rotate(60.0508 388.745 174.781)" fill="white"/>
</clipPath>
<clipPath id="clip32">
<rect x="284.768" y="234.689" width="20" height="20" transform="rotate(60.0508 284.768 234.689)" fill="white"/>
</clipPath>
<clipPath id="clip33">
<rect x="180.792" y="294.596" width="20" height="20" transform="rotate(60.0508 180.792 294.596)" fill="white"/>
</clipPath>
<clipPath id="clip34">
<rect x="354.086" y="194.75" width="20" height="20" transform="rotate(60.0508 354.086 194.75)" fill="white"/>
</clipPath>
<clipPath id="clip35">
<rect x="250.11" y="254.658" width="20" height="20" transform="rotate(60.0508 250.11 254.658)" fill="white"/>
</clipPath>
<clipPath id="clip36">
<rect x="146.133" y="314.566" width="20" height="20" transform="rotate(60.0508 146.133 314.566)" fill="white"/>
</clipPath>
<clipPath id="clip37">
<rect x="76.8159" y="354.504" width="20" height="20" transform="rotate(60.0508 76.8159 354.504)" fill="white"/>
</clipPath>
<clipPath id="clip38">
<rect x="319.427" y="214.719" width="20" height="20" transform="rotate(60.0508 319.427 214.719)" fill="white"/>
</clipPath>
<clipPath id="clip39">
<rect x="215.451" y="274.627" width="20" height="20" transform="rotate(60.0508 215.451 274.627)" fill="white"/>
</clipPath>
<clipPath id="clip40">
<rect x="111.475" y="334.535" width="20" height="20" transform="rotate(60.0508 111.475 334.535)" fill="white"/>
</clipPath>
<clipPath id="clip41">
<rect x="42.1572" y="374.473" width="20" height="20" transform="rotate(60.0508 42.1572 374.473)" fill="white"/>
</clipPath>
<clipPath id="clip42">
<rect x="448.652" y="278.757" width="20" height="20" transform="rotate(60.0508 448.652 278.757)" fill="white"/>
</clipPath>
<clipPath id="clip43">
<rect x="344.676" y="338.665" width="20" height="20" transform="rotate(60.0508 344.676 338.665)" fill="white"/>
</clipPath>
<clipPath id="clip44">
<rect x="240.7" y="398.573" width="20" height="20" transform="rotate(60.0508 240.7 398.573)" fill="white"/>
</clipPath>
<clipPath id="clip45">
<rect x="413.994" y="298.726" width="20" height="20" transform="rotate(60.0508 413.994 298.726)" fill="white"/>
</clipPath>
<clipPath id="clip46">
<rect x="310.017" y="358.634" width="20" height="20" transform="rotate(60.0508 310.017 358.634)" fill="white"/>
</clipPath>
<clipPath id="clip47">
<rect x="379.335" y="318.695" width="20" height="20" transform="rotate(60.0508 379.335 318.695)" fill="white"/>
</clipPath>
<clipPath id="clip48">
<rect x="275.359" y="378.603" width="20" height="20" transform="rotate(60.0508 275.359 378.603)" fill="white"/>
</clipPath>
<clipPath id="clip49">
<rect x="328.837" y="70.8045" width="20" height="20" transform="rotate(60.0508 328.837 70.8045)" fill="white"/>
</clipPath>
<clipPath id="clip50">
<rect x="224.861" y="130.712" width="20" height="20" transform="rotate(60.0508 224.861 130.712)" fill="white"/>
</clipPath>
<clipPath id="clip51">
<rect x="120.884" y="190.62" width="20" height="20" transform="rotate(60.0508 120.884 190.62)" fill="white"/>
</clipPath>
<clipPath id="clip52">
<rect x="294.178" y="90.7738" width="20" height="20" transform="rotate(60.0508 294.178 90.7738)" fill="white"/>
</clipPath>
<clipPath id="clip53">
<rect x="190.202" y="150.682" width="20" height="20" transform="rotate(60.0508 190.202 150.682)" fill="white"/>
</clipPath>
<clipPath id="clip54">
<rect x="86.2256" y="210.589" width="20" height="20" transform="rotate(60.0508 86.2256 210.589)" fill="white"/>
</clipPath>
<clipPath id="clip55">
<rect x="16.9082" y="250.528" width="20" height="20" transform="rotate(60.0508 16.9082 250.528)" fill="white"/>
</clipPath>
<clipPath id="clip56">
<rect x="259.519" y="110.743" width="20" height="20" transform="rotate(60.0508 259.519 110.743)" fill="white"/>
</clipPath>
<clipPath id="clip57">
<rect x="155.543" y="170.651" width="20" height="20" transform="rotate(60.0508 155.543 170.651)" fill="white"/>
</clipPath>
<clipPath id="clip58">
<rect x="51.5669" y="230.559" width="20" height="20" transform="rotate(60.0508 51.5669 230.559)" fill="white"/>
</clipPath>
<clipPath id="clip59">
<rect x="408.714" y="209.439" width="20" height="20" transform="rotate(60.0508 408.714 209.439)" fill="white"/>
</clipPath>
<clipPath id="clip60">
<rect x="304.738" y="269.347" width="20" height="20" transform="rotate(60.0508 304.738 269.347)" fill="white"/>
</clipPath>
<clipPath id="clip61">
<rect x="200.761" y="329.255" width="20" height="20" transform="rotate(60.0508 200.761 329.255)" fill="white"/>
</clipPath>
<clipPath id="clip62">
<rect x="374.055" y="229.409" width="20" height="20" transform="rotate(60.0508 374.055 229.409)" fill="white"/>
</clipPath>
<clipPath id="clip63">
<rect x="270.079" y="289.317" width="20" height="20" transform="rotate(60.0508 270.079 289.317)" fill="white"/>
</clipPath>
<clipPath id="clip64">
<rect x="166.103" y="349.224" width="20" height="20" transform="rotate(60.0508 166.103 349.224)" fill="white"/>
</clipPath>
<clipPath id="clip65">
<rect x="96.7852" y="389.163" width="20" height="20" transform="rotate(60.0508 96.7852 389.163)" fill="white"/>
</clipPath>
<clipPath id="clip66">
<rect x="339.396" y="249.378" width="20" height="20" transform="rotate(60.0508 339.396 249.378)" fill="white"/>
</clipPath>
<clipPath id="clip67">
<rect x="235.42" y="309.286" width="20" height="20" transform="rotate(60.0508 235.42 309.286)" fill="white"/>
</clipPath>
<clipPath id="clip68">
<rect x="131.444" y="369.194" width="20" height="20" transform="rotate(60.0508 131.444 369.194)" fill="white"/>
</clipPath>
<clipPath id="clip69">
<rect x="364.646" y="373.324" width="20" height="20" transform="rotate(60.0508 364.646 373.324)" fill="white"/>
</clipPath>
<clipPath id="clip70">
<rect x="433.963" y="333.385" width="20" height="20" transform="rotate(60.0508 433.963 333.385)" fill="white"/>
</clipPath>
<clipPath id="clip71">
<rect x="329.987" y="393.293" width="20" height="20" transform="rotate(60.0508 329.987 393.293)" fill="white"/>
</clipPath>
<clipPath id="clip72">
<rect x="399.304" y="353.354" width="20" height="20" transform="rotate(60.0508 399.304 353.354)" fill="white"/>
</clipPath>
<clipPath id="clip73">
<rect x="348.806" y="105.463" width="20" height="20" transform="rotate(60.0508 348.806 105.463)" fill="white"/>
</clipPath>
<clipPath id="clip74">
<rect x="244.83" y="165.371" width="20" height="20" transform="rotate(60.0508 244.83 165.371)" fill="white"/>
</clipPath>
<clipPath id="clip75">
<rect x="140.854" y="225.279" width="20" height="20" transform="rotate(60.0508 140.854 225.279)" fill="white"/>
</clipPath>
<clipPath id="clip76">
<rect x="314.147" y="125.433" width="20" height="20" transform="rotate(60.0508 314.147 125.433)" fill="white"/>
</clipPath>
<clipPath id="clip77">
<rect x="210.171" y="185.34" width="20" height="20" transform="rotate(60.0508 210.171 185.34)" fill="white"/>
</clipPath>
<clipPath id="clip78">
<rect x="106.195" y="245.248" width="20" height="20" transform="rotate(60.0508 106.195 245.248)" fill="white"/>
</clipPath>
<clipPath id="clip79">
<rect x="36.8774" y="285.187" width="20" height="20" transform="rotate(60.0508 36.8774 285.187)" fill="white"/>
</clipPath>
<clipPath id="clip80">
<rect x="279.489" y="145.402" width="20" height="20" transform="rotate(60.0508 279.489 145.402)" fill="white"/>
</clipPath>
<clipPath id="clip81">
<rect x="175.512" y="205.31" width="20" height="20" transform="rotate(60.0508 175.512 205.31)" fill="white"/>
</clipPath>
<clipPath id="clip82">
<rect x="71.5361" y="265.217" width="20" height="20" transform="rotate(60.0508 71.5361 265.217)" fill="white"/>
</clipPath>
<clipPath id="clip83">
<rect x="2.21875" y="305.156" width="20" height="20" transform="rotate(60.0508 2.21875 305.156)" fill="white"/>
</clipPath>
<clipPath id="clip84">
<rect x="428.683" y="244.098" width="20" height="20" transform="rotate(60.0508 428.683 244.098)" fill="white"/>
</clipPath>
<clipPath id="clip85">
<rect x="324.707" y="304.006" width="20" height="20" transform="rotate(60.0508 324.707 304.006)" fill="white"/>
</clipPath>
<clipPath id="clip86">
<rect x="220.731" y="363.914" width="20" height="20" transform="rotate(60.0508 220.731 363.914)" fill="white"/>
</clipPath>
<clipPath id="clip87">
<rect x="394.024" y="264.067" width="20" height="20" transform="rotate(60.0508 394.024 264.067)" fill="white"/>
</clipPath>
<clipPath id="clip88">
<rect x="290.048" y="323.975" width="20" height="20" transform="rotate(60.0508 290.048 323.975)" fill="white"/>
</clipPath>
<clipPath id="clip89">
<rect x="186.072" y="383.883" width="20" height="20" transform="rotate(60.0508 186.072 383.883)" fill="white"/>
</clipPath>
<clipPath id="clip90">
<rect x="359.366" y="284.037" width="20" height="20" transform="rotate(60.0508 359.366 284.037)" fill="white"/>
</clipPath>
<clipPath id="clip91">
<rect x="255.389" y="343.945" width="20" height="20" transform="rotate(60.0508 255.389 343.945)" fill="white"/>
</clipPath>
<clipPath id="clip92">
<rect x="419.273" y="388.013" width="20" height="20" transform="rotate(60.0508 419.273 388.013)" fill="white"/>
</clipPath>
</defs>
</svg>
